#!OML:ASF F:\twosubjects\two\Thursday\Session 1\justin.ASF
:FULLY-SPECIFIED
:DEGREES
525
root 23.7045 15.161 -18.5873 11.4981 -52.2586 -2.10984
lowerback 37.0771 5.28229 -1.76856
upperback 8.29667 5.79969 3.93593
thorax -9.66519 2.41329 2.84301
lowerneck -19.4935 -6.32904 -15.0876
upperneck -19.189 -5.01001 15.4683
head -1.8178 -2.10282 7.24736
rclavicle -5.80451e-014 1.98785e-014
rhumerus -24.5052 -19.1489 -70.5046
rradius 53.2925
rwrist -9.65036
rhand -23.0339 13.5857
rfingers 7.12502
rthumb 3.41035 -16.3667
lclavicle -5.80451e-014 1.98785e-014
lhumerus -28.547 -5.45766 88.4737
lradius 65.9855
lwrist -0.925921
lhand -8.2334 32.7393
lfingers 7.12502
lthumb 17.6842 61.9551
rfemur -38.3005 -6.0549 -4.76938
rtibia 63.3152
rfoot -19.7257 0.003917
rtoes -41.0016
lfemur -38.6426 15.2947 -3.8296
ltibia 66.5329
lfoot -34.1608 -2.56148
ltoes -30.19
526
root 23.648 15.1164 -18.6795 11.8587 -51.9881 -2.30413
lowerback 36.7198 5.2865 -1.65839
upperback 8.19449 5.87875 3.98692
thorax -9.65677 2.45867 2.81933
lowerneck -19.2004 -6.32166 -15.2055
upperneck -19.3025 -5.00775 15.4311
head -1.8917 -2.09979 7.2636
rclavicle -6.36111e-014 4.29375e-014
rhumerus -25.0188 -19.2013 -70.4039
rradius 52.7066
rwrist -9.56644
rhand -23.3858 13.2563
rfingers 7.12502
rthumb 3.07055 -16.7013
lclavicle -6.36111e-014 4.29375e-014
lhumerus -28.7398 -4.19601 87.9067
lradius 66.3682
lwrist -0.416795
lhand -7.86965 32.7203
lfingers 7.12502
lthumb 18.0343 61.9042
rfemur -37.8222 -6.27679 -4.33447
rtibia 62.6257
rfoot -21.7751 -0.0776199
rtoes -41.7038
lfemur -39.075 15.623 -3.27973
ltibia 66.605
lfoot -33.2884 -2.31331
ltoes -28.4597
527
root 23.5946 15.0716 -18.7763 11.6663 -51.8936 -2.09857
lowerback 36.6011 5.56569 -1.3201
upperback 8.12691 6.3137 3.58302
thorax -9.63169 2.66243 2.04166
lowerneck -18.715 -6.43339 -14.2439
upperneck -19.5548 -5.38344 15.1342
head -2.017 -2.35911 6.98778
rclavicle -1.59028e-015 -4.21423e-014
rhumerus -25.8732 -20.4326 -70.5504
rradius 52.125
rwrist -9.35621
rhand -24.1295 12.9594
rfingers 7.12502
rthumb 2.35232 -17.0073
lclavicle -1.59028e-015 -4.21423e-014
lhumerus -28.6237 -4.38113 86.9792
lradius 66.5902
lwrist 0.165099
lhand -8.33813 31.144
lfingers 7.12502
lthumb 17.5835 60.3689
rfemur -37.4559 -6.639 -4.02825
rtibia 62.3317
rfoot -23.5912 -0.295835
rtoes -41.8085
lfemur -39.1914 16.114 -2.96342
ltibia 66.6394
lfoot -33.2278 -2.18069
ltoes -30.0507
528
root 23.5433 15.0369 -18.8761 11.3061 -52.0461 -1.66997
lowerback 36.4679 5.74628 -2.14509
upperback 8.19595 6.29032 4.003
thorax -9.63993 2.66094 2.93108
lowerneck -18.7262 -6.40389 -15.4338
upperneck -19.6611 -5.12333 15.3095
head -2.05181 -2.15212 7.27416
rclavicle 1.82882e-014 4.77083e-015
rhumerus -25.8151 -18.9763 -70.2921
rradius 51.7146
rwrist -9.83513
rhand -24.0834 12.9273
rfingers 7.12502
rthumb 2.39679 -17.039
lclavicle 1.82882e-014 4.77083e-015
lhumerus -28.6918 -2.19491 86.8554
lradius 66.7629
lwrist 0.590865
lhand -10.3421 32.8226
lfingers 7.12502
lthumb 15.6542 62.2093
rfemur -37.5537 -7.09328 -3.65171
rtibia 62.4282
rfoot -25.0483 -1.05293
rtoes -41.665
lfemur -39.1732 16.4956 -2.77856
ltibia 66.5879
lfoot -32.2399 -1.45981
ltoes -28.95
529
root 23.5008 15.0069 -18.982 11.1413 -52.2971 -1.30725
lowerback 36.4698 5.8997 -2.19179
upperback 8.11156 6.42754 3.64087
thorax -9.69813 2.72986 2.51124
lowerneck -18.2798 -6.32254 -15.1713
upperneck -20.314 -5.08776 15.2578
head -2.32407 -2.1693 7.2472
rclavicle 6.83819e-014 -7.95139e-016
rhumerus -25.9982 -19.4084 -70.8168
rradius 51.1925
rwrist -10.3078
rhand -23.8132 12.8789
rfingers 7.12502
rthumb 2.65777 -17.0843
lclavicle 6.83819e-014 -7.95139e-016
lhumerus -28.5405 -1.70672 85.8379
lradius 67.0112
lwrist 1.24041
lhand -9.48968 33.526
lfingers 7.12502
lthumb 16.475 62.8465
rfemur -38.1894 -7.73414 -3.05696
rtibia 62.875
rfoot -25.8471 -2.14396
rtoes -41.0457
lfemur -39.2729 16.7619 -2.58949
ltibia 66.4744
lfoot -28.7709 -0.109726
ltoes -19.3979
530
root 23.4661 14.9758 -19.0777 11.1114 -52.4963 -0.845213
lowerback 36.1083 6.24471 -2.78412
upperback 8.01466 6.69625 3.83072
thorax -9.7798 2.87165 2.92185
lowerneck -18.4857 -6.22936 -15.1989
upperneck -19.9415 -4.99053 14.7211
head -2.23274 -2.09252 7.06336
rclavicle 7.79236e-014 -2.54444e-014
rhumerus -25.6396 -19.7516 -70.4832
rradius 49.6564
rwrist -10.3432
rhand -22.7196 12.6023
rfingers 7.12502
rthumb 3.71389 -17.3451
lclavicle 7.79236e-014 -2.54444e-014
lhumerus -28.8295 -0.635632 85.7671
lradius 67.4263
lwrist 1.22911
lhand -7.41025 33.0203
lfingers 7.12502
lthumb 18.4762 62.1629
rfemur -39.2194 -8.61083 -2.5213
rtibia 63.5929
rfoot -26.3766 -2.95403
rtoes -39.8283
lfemur -39.627 16.9225 -2.61027
ltibia 66.3089
lfoot -28.4443 -0.423114
ltoes -18.5993
531
root 23.4326 14.9582 -19.1582 10.9393 -52.6487 -0.445165
lowerback 35.9697 6.12705 -2.78012
upperback 7.92163 6.54793 3.67578
thorax -9.80049 2.81048 2.81963
lowerneck -19.1725 -6.10309 -15.2607
upperneck -19.0604 -4.76325 14.5516
head -1.91441 -1.94012 6.9916
rclavicle 6.04305e-014 -2.62396e-014
rhumerus -25.2138 -19.5504 -70.7073
rradius 48.2402
rwrist -9.97256
rhand -22.2342 11.7357
rfingers 7.12502
rthumb 4.18262 -18.203
lclavicle 6.04305e-014 -2.62396e-014
lhumerus -29.3165 0.970662 85.2185
lradius 67.9329
lwrist 1.14579
lhand -7.42304 33.2755
lfingers 7.12502
lthumb 18.4639 62.4192
rfemur -40.0382 -9.33351 -1.98845
rtibia 64.4241
rfoot -26.9909 -3.64078
rtoes -38.0839
lfemur -39.6486 16.7335 -2.56236
ltibia 66.0198
lfoot -32.3636 -2.31227
ltoes -30.1941
532
root 23.3955 14.959 -19.2282 10.2293 -52.7556 0.170361
lowerback 36.2793 6.20066 -2.60559
upperback 7.91118 6.68911 3.67899
thorax -9.91712 2.8678 2.65806
lowerneck -19.5233 -6.25579 -15.7054
upperneck -18.5729 -4.87319 14.3166
head -1.71397 -1.94533 6.95985
rclavicle -1.90833e-014 -3.10104e-014
rhumerus -25.1956 -19.5679 -70.3016
rradius 47.3791
rwrist -9.39578
rhand -22.237 11.1934
rfingers 7.12502
rthumb 4.17993 -18.7453
lclavicle -1.90833e-014 -3.10104e-014
lhumerus -29.5287 1.94779 85.1585
lradius 68.2884
lwrist 1.29749
lhand -11.0413 34.4885
lfingers 7.12502
lthumb 14.9807 63.9267
rfemur -40.3982 -10.0436 -1.66872
rtibia 65.276
rfoot -27.4478 -4.01888
rtoes -35.8739
lfemur -39.1073 16.1193 -2.56008
ltibia 65.5825
lfoot -32.8057 -1.55371
ltoes -32.296
533
root 23.3592 14.9555 -19.3194 9.55409 -53.135 1.0864
lowerback 36.3542 6.40845 -2.6166
upperback 7.8654 6.94486 3.68066
thorax -10.0143 2.98543 2.5536
lowerneck -19.5616 -6.5917 -16.9632
upperneck -18.1876 -5.08619 14.412
head -1.53835 -1.96619 7.17456
rclavicle -4.45278e-014 1.59028e-014
rhumerus -25.096 -19.875 -69.6107
rradius 46.4335
rwrist -8.3088
rhand -21.634 11.5888
rfingers 7.12502
rthumb 4.76214 -18.3377
lclavicle -4.45278e-014 1.59028e-014
lhumerus -29.575 2.53203 85.2637
lradius 68.5574
lwrist 1.87441
lhand -13.9235 35.4463
lfingers 7.12502
lthumb 12.2029 65.0703
rfemur -41.3013 -10.5083 -1.57122
rtibia 66.2099
rfoot -27.6728 -4.14809
rtoes -34.2775
lfemur -38.7819 15.917 -2.8235
ltibia 65.1078
lfoot -32.76 -1.37198
ltoes -33.287
534
root 23.3296 14.9436 -19.403 9.00203 -53.4212 1.85625
lowerback 36.2126 6.02527 -2.59928
upperback 8.06111 6.3818 3.06534
thorax -9.61791 2.72628 2.14094
lowerneck -20.3533 -6.13486 -16.1982
upperneck -17.9736 -4.52332 14.2486
head -1.47164 -1.7076 7.0184
rclavicle -3.02153e-014 5.32743e-014
rhumerus -23.904 -19.7831 -70.9319
rradius 45.3858
rwrist -7.28714
rhand -21.376 11.2892
rfingers 7.12502
rthumb 5.01126 -18.6316
lclavicle -3.02153e-014 5.32743e-014
lhumerus -29.3649 3.9415 83.8179
lradius 68.913
lwrist 2.43963
lhand -14.6492 35.6941
lfingers 7.12502
lthumb 11.5031 65.3584
rfemur -42.1395 -10.7544 -1.51088
rtibia 67.0621
rfoot -27.7729 -4.37584
rtoes -34.1145
lfemur -38.5777 15.7405 -3.04033
ltibia 64.6562
lfoot -32.5478 -1.00195
ltoes -34.9291
535
root 23.3057 14.9407 -19.4866 8.97417 -53.6699 1.83316
lowerback 36.2074 6.00249 -2.69021
upperback 8.09411 6.34778 3.32927
thorax -9.62136 2.70787 2.48293
lowerneck -20.4767 -5.85229 -16.357
upperneck -17.7255 -4.13485 13.859
head -1.45855 -1.49426 6.93726
rclavicle 6.75868e-014 1.51076e-014
rhumerus -23.438 -19.0457 -70.8733
rradius 44.7225
rwrist -7.21284
rhand -20.9714 11.0683
rfingers 7.12502
rthumb 5.40198 -18.8428
lclavicle 6.75868e-014 1.51076e-014
lhumerus -29.6019 5.62817 83.5362
lradius 69.0329
lwrist 2.69776
lhand -14.9016 35.5672
lfingers 7.12502
lthumb 11.2596 65.245
rfemur -42.7675 -10.6022 -1.08192
rtibia 67.752
rfoot -27.7979 -4.518
rtoes -33.8908
lfemur -38.3438 15.5968 -2.70746
ltibia 64.2219
lfoot -31.8968 -0.759356
ltoes -35.2959
536
root 23.2745 14.9602 -19.569 8.94047 -53.9297 1.81042
lowerback 36.324 5.86841 -2.48402
upperback 8.04885 6.25089 3.33255
thorax -9.6893 2.65865 2.41197
lowerneck -21.0631 -5.55362 -16.0371
upperneck -16.9689 -3.77503 13.3242
head -1.23757 -1.30993 6.70563
rclavicle 1.66979e-014 -2.38542e-014
rhumerus -23.1213 -18.8733 -71.1487
rradius 44.2401
rwrist -6.8628
rhand -20.2416 11.5684
rfingers 7.12502
rthumb 6.1066 -18.3236
lclavicle 1.66979e-014 -2.38542e-014
lhumerus -29.6614 7.09213 82.8635
lradius 69.0048
lwrist 3.6176
lhand -14.5487 35.7607
lfingers 7.12502
lthumb 11.6 65.4197
rfemur -43.17 -10.1675 -0.818284
rtibia 68.1649
rfoot -27.8819 -4.42754
rtoes -33.5445
lfemur -37.9409 15.2897 -2.37288
ltibia 63.6847
lfoot -30.8367 -0.166944
ltoes -32.9597
537
root 23.2389 14.9761 -19.6451 8.41571 -54.1595 2.36993
lowerback 36.4523 6.25979 -2.89147
upperback 8.05582 6.62691 3.67631
thorax -9.83844 2.83289 2.82549
lowerneck -21.3601 -5.35893 -15.3957
upperneck -16.8491 -3.69064 12.1347
head -1.24767 -1.29322 6.20653
rclavicle -6.83819e-014 -5.24792e-014
rhumerus -23.0202 -19.4273 -70.682
rradius 43.9727
rwrist -6.36696
rhand -19.5536 11.7745
rfingers 7.12502
rthumb 6.77075 -18.0972
lclavicle -6.83819e-014 -5.24792e-014
lhumerus -29.5558 7.79167 83.0918
lradius 68.9153
lwrist 4.64046
lhand -13.9327 36.2465
lfingers 7.12502
lthumb 12.194 65.871
rfemur -43.3554 -9.70486 -1.06901
rtibia 68.3477
rfoot -27.962 -4.24513
rtoes -34.0431
lfemur -37.3526 14.8447 -2.40287
ltibia 63.0317
lfoot -30.011 0.307514
ltoes -29.1064
538
root 23.2101 14.9851 -19.7099 7.59022 -54.4098 3.38789
lowerback 36.4301 6.24332 -2.85305
upperback 8.01836 6.58947 3.38749
thorax -9.82464 2.81931 2.51431
lowerneck -20.8147 -5.03105 -14.7375
upperneck -17.3636 -3.4927 11.5013
head -1.53714 -1.24103 5.92095
rclavicle -5.08889e-014 -4.29375e-014
rhumerus -22.978 -20.0739 -70.8327
rradius 43.7236
rwrist -5.73358
rhand -18.4749 12.0299
rfingers 7.12502
rthumb 7.81196 -17.8058
lclavicle -5.08889e-014 -4.29375e-014
lhumerus -29.6618 8.24323 82.7085
lradius 68.9189
lwrist 5.25995
lhand -14.9271 36.6765
lfingers 7.12502
lthumb 11.2351 66.3557
rfemur -43.4668 -9.37146 -1.71734
rtibia 68.345
rfoot -28.2076 -3.75138
rtoes -34.2757
lfemur -36.9262 14.3627 -2.79685
ltibia 62.3774
lfoot -25.3953 2.78861
ltoes -14.6935
